{"title":"Awesome Mausam Hindi 2016 DesiSCR x264-HDF.mp4","uid":15648356,"size":649242884,"categoryP":"video","categoryS":"movies","magnet":"?xt=urn:btih:de5d1411fe90e1c59b67c736966c161615ddc364&amp;dn=Awesome+Mausam+Hindi+2016+DesiSCR+x264-HDF.mp4&amp;tr=udp%3A%2F%2Ftracker.leechers-paradise.org%3A6969&amp;tr=udp%3A%2F%2Fzer0day.ch%3A1337&amp;tr=udp%3A%2F%2Fopen.demonii.com%3A1337&amp;tr=udp%3A%2F%2Ftracker.coppersurfer.tk%3A6969&amp;tr=udp%3A%2F%2Fexodus.desync.com%3A6969","seeders":0,"leechers":1,"uploader":null,"files":1,"time":1472070483,"description":"http://www.movierulzfull.in/ presents:\r\n\r\nAwesome Mausam Hindi 2016 DesiSCR x264-HDF.mp4\r\n\r\nScreens:\r\n \nhttp://extraimago.com/images/2016/08/24/wEPW.png \nhttp://extraimago.com/images/2016/08/24/wEPf.png \nhttp://extraimago.com/images/2016/08/24/wEX8.png \nhttp://extraimago.com/images/2016/08/24/wEXa.png \nhttp://extraimago.com/images/2016/08/24/wEXw.png\r\n\r\nInfo:\r\n\r\nFormat : MPEG-4\r\nFormat profile : Base Media\r\nCodec ID : isom (isom/iso2/avc1/mp41)\r\nFile size : 619 MiB\r\nDuration : 2 h 8 min\r\nOverall bit rate mode : Variable\r\nOverall bit rate : 672 kb/s\r\nWriting application : Lavf57.20.100\r\n\r\nVideo\r\nID : 1\r\nFormat : AVC\r\nFormat/Info : Advanced Video Codec\r\nFormat profile :   \r\nFormat settings, CABAC : Yes\r\nFormat settings, ReFrames : 4 frames\r\nCodec ID : avc1\r\nCodec ID/Info : Advanced Video Coding\r\nDuration : 2 h 8 min\r\nBit rate : 541 kb/s\r\nWidth : 900 pixels\r\nHeight : 736 pixels\r\nDisplay aspect ratio : 4:3\r\nOriginal display aspect ratio : 4:3\r\nFrame rate mode : Constant\r\nFrame rate : 25.000 FPS\r\nColor space : YUV\r\nChroma subsampling : 4:2:0\r\nBit depth : 8 bits\r\nScan type : Progressive\r\nBits/(Pixel*Frame) : 0.033\r\nStream size : 498 MiB (80%)\r\nWriting library : x264 core 138\r\nEncoding settings : cabac=1 / ref=2 / deblock=1:0:0 / analyse=0x3:0x113 / me=hex / subme=4 / psy=1 / psy_rd=1.00:0.00 / mixed_ref=0 / me_range=16 / chroma_me=1 / trellis=1 / 8x8dct=1 / cqm=0 / deadzone=21,11 / fast_pskip=1 / chroma_qp_offset=0 / threads=36 / lookahead_threads=5 / sliced_threads=0 / nr=0 / decimate=1 / interlaced=0 / bluray_compat=0 / constrained_intra=0 / bframes=3 / b_pyramid=2 / b_adapt=1 / b_bias=0 / direct=1 / weightb=1 / open_gop=0 / weightp=1 / keyint=250 / keyint_min=25 / scenecut=40 / intra_refresh=0 / rc_lookahead=20 / rc=crf / mbtree=1 / crf=26.0 / qcomp=0.60 / qpmin=0 / qpmax=69 / qpstep=4 / vbv_maxrate=800 / vbv_bufsize=4000 / crf_max=0.0 / nal_hrd=none / ip_ratio=1.40 / aq=1:1.00\r\n\r\nAudio\r\nID : 2\r\nFormat : AAC\r\nFormat/Info : Advanced Audio Codec\r\nFormat profile : LC\r\nCodec ID : 40\r\nDuration : 2 h 8 min\r\nBit rate mode : Variable\r\nBit rate : 126 kb/s\r\nChannel(s) : 2 channels\r\nChannel positions : Front: L R\r\nSampling rate : 44.1 kHz\r\nFrame rate : 43.066 FPS (1024 spf)\r\nCompression mode : Lossy\r\nStream size : 115 MiB (19%)\r\nDefault : Yes\r\nAlternate group : 1 \r\n \nhttp://www.movierulzfull.in/awesome-mausam-full-movie-watch/\r\n \nhttp://tvmoviereviews.drupalgardens.com/content/awesome-mausam-review","torrent":{"xt":"urn:btih:de5d1411fe90e1c59b67c736966c161615ddc364","amp;dn":"Awesome+Mausam+Hindi+2016+DesiSCR+x264-HDF.mp4","amp;tr":["udp%3A%2F%2Ftracker.leechers-paradise.org%3A6969","udp%3A%2F%2Fzer0day.ch%3A1337","udp%3A%2F%2Fopen.demonii.com%3A1337","udp%3A%2F%2Ftracker.coppersurfer.tk%3A6969","udp%3A%2F%2Fexodus.desync.com%3A6969"],"infoHash":"de5d1411fe90e1c59b67c736966c161615ddc364","infoHashBuffer":{"type":"Buffer","data":[222,93,20,17,254,144,225,197,155,103,199,54,150,108,22,22,21,221,195,100]},"announce":[],"urlList":[]}}